<svg width="24" height="24" viewBox="0 0 24 24" fill="none" xmlns="http://www.w3.org/2000/svg">
<path d="M20 22V4C20 2.897 19.103 2 18 2H6C4.897 2 4 2.897 4 4V22L12 17.428L20 22ZM6 10V4H18V18.553L12 15.125L6 18.553V10Z" fill="black"/>
<path d="M15.409 9.51195C15.77 9.13995 15.994 8.62395 15.994 8.05595C15.994 7.48795 15.771 6.97295 15.409 6.59995C15.2263 6.40967 15.007 6.2582 14.7644 6.15459C14.5218 6.05098 14.2608 5.99737 13.997 5.99695C13.997 5.99695 13.001 5.99395 12 7.02595C10.999 5.99395 10.003 5.99695 10.003 5.99695C9.45098 5.99695 8.95198 6.22695 8.59098 6.59995C8.22898 6.97295 8.00598 7.48695 8.00598 8.05595C8.00598 8.62495 8.22898 9.13995 8.59098 9.51195L12 13.2029L15.409 9.51195Z" fill="black"/>
</svg>
