<svg width="24" height="24" viewBox="0 0 24 24" fill="none" xmlns="http://www.w3.org/2000/svg">
<g clip-path="url(#clip0_206_2561)">
<path d="M9.99996 3.19998C8.43567 3.56262 6.99688 4.33718 5.83284 5.44332C4.6688 6.54946 3.8219 7.94689 3.37999 9.49066C2.93808 11.0344 2.91725 12.6683 3.31965 14.2229C3.72206 15.7774 4.53305 17.196 5.66851 18.3314C6.80397 19.4669 8.22254 20.2779 9.77708 20.6803C11.3316 21.0827 12.9655 21.0619 14.5093 20.62C16.0531 20.178 17.4505 19.3311 18.5566 18.1671C19.6628 17.0031 20.4373 15.5643 20.8 14C20.8 13.7348 20.6946 13.4804 20.5071 13.2929C20.3195 13.1053 20.0652 13 19.8 13H16C15.8182 13.699 15.4549 14.3376 14.9471 14.8511C14.4392 15.3646 13.8046 15.7348 13.1077 15.9243C12.4107 16.1138 11.6761 16.1159 10.9781 15.9302C10.2801 15.7446 9.64355 15.3778 9.13283 14.8671C8.62212 14.3564 8.25538 13.7198 8.06973 13.0219C7.88408 12.3239 7.88611 11.5892 8.0756 10.8923C8.2651 10.1953 8.63534 9.56078 9.14887 9.05289C9.66239 8.545 10.301 8.18178 11 7.99998V3.99998C10.9875 3.88151 10.9517 3.76668 10.8946 3.66215C10.8374 3.55763 10.7601 3.46548 10.6671 3.39107C10.5741 3.31665 10.4672 3.26144 10.3527 3.22864C10.2382 3.19584 10.1183 3.1861 9.99996 3.19998Z" stroke="black" stroke-width="2" stroke-linecap="round" stroke-linejoin="round"/>
<path d="M15 3.5C16.2697 3.94708 17.423 4.6733 18.3748 5.62516C19.3267 6.57702 20.0529 7.73028 20.5 9H16C15.6934 8.64095 15.359 8.30659 15 8V3.5Z" stroke="black" stroke-width="2" stroke-linecap="round" stroke-linejoin="round"/>
</g>
<defs>
<clipPath id="clip0_206_2561">
<rect width="24" height="24" fill="white"/>
</clipPath>
</defs>
</svg>
