<svg width="24" height="24" viewBox="0 0 24 24" fill="none" xmlns="http://www.w3.org/2000/svg">
<path d="M13.5252 16H17.9102L15.9172 11.046L13.5252 16ZM18.7152 18H12.5592L10.9012 21.435C10.7858 21.674 10.5802 21.8573 10.3297 21.9447C10.0791 22.0321 9.80414 22.0164 9.56518 21.901C9.32622 21.7856 9.14288 21.5801 9.05549 21.3295C8.96809 21.079 8.98381 20.804 9.09918 20.565L14.1162 10.177C14.2848 9.82813 14.551 9.53574 14.8827 9.33536C15.2143 9.13498 15.597 9.03524 15.9842 9.04827C16.3715 9.0613 16.7466 9.18653 17.064 9.40874C17.3814 9.63096 17.6274 9.94059 17.7722 10.3L21.9282 20.627C22.0271 20.8731 22.0242 21.1485 21.9201 21.3924C21.816 21.6364 21.6193 21.8291 21.3732 21.928C21.1271 22.0269 20.8517 22.024 20.6077 21.9199C20.3638 21.8159 20.1711 21.6191 20.0722 21.373L18.7152 18ZM3.00018 2H11.0002C11.2654 2 11.5198 2.10536 11.7073 2.29289C11.8948 2.48043 12.0002 2.73478 12.0002 3C12.0002 3.26522 11.8948 3.51957 11.7073 3.70711C11.5198 3.89464 11.2654 4 11.0002 4H3.00018C2.73496 4 2.48061 3.89464 2.29307 3.70711C2.10554 3.51957 2.00018 3.26522 2.00018 3C2.00018 2.73478 2.10554 2.48043 2.29307 2.29289C2.48061 2.10536 2.73496 2 3.00018 2V2ZM3.00018 7C2.73496 7 2.48061 6.89464 2.29307 6.70711C2.10554 6.51957 2.00018 6.26522 2.00018 6C2.00018 5.73478 2.10554 5.48043 2.29307 5.29289C2.48061 5.10536 2.73496 5 3.00018 5H10.0032C10.3534 5.00011 10.6975 5.0922 11.001 5.26704C11.3044 5.44188 11.5567 5.69335 11.7324 5.99629C11.9082 6.29922 12.0013 6.64301 12.0025 6.99324C12.0037 7.34348 11.9129 7.68788 11.7392 7.992C10.7942 9.646 9.74618 10.836 8.57418 11.546C7.10218 12.439 5.25418 12.918 3.03718 12.999C2.904 13.0073 2.77052 12.9888 2.64458 12.9447C2.51864 12.9006 2.40281 12.8318 2.3039 12.7422C2.20499 12.6526 2.125 12.5442 2.06865 12.4232C2.0123 12.3023 1.98072 12.1713 1.97578 12.0379C1.97084 11.9046 1.99264 11.7716 2.03989 11.6468C2.08714 11.522 2.15889 11.408 2.2509 11.3113C2.34292 11.2147 2.45334 11.1375 2.57567 11.0842C2.698 11.0309 2.82976 11.0026 2.96318 11.001C4.86118 10.931 6.38218 10.537 7.53718 9.836C8.38418 9.323 9.21318 8.382 10.0032 7H3.00018Z" fill="black"/>
</svg>
