<svg width="50" height="50" viewBox="0 0 50 50" fill="none" xmlns="http://www.w3.org/2000/svg">
<circle cx="25" cy="25" r="25" fill="#B10000"/>
<mask id="path-2-outside-1_245_35" maskUnits="userSpaceOnUse" x="11" y="29" width="40" height="17" fill="black">
<rect fill="white" x="11" y="29" width="40" height="17"/>
<path d="M19.408 34.632C19.6107 34.632 19.808 34.664 20 34.728C20.544 35.3893 20.9173 36.536 21.12 38.168C21.3227 39.7893 21.424 41.4 21.424 43L18.544 43.24C18.544 40.7867 18.4533 38.552 18.272 36.536C16.8533 37.0587 15.9093 39.2453 15.44 43.096L13.856 43.24L13.04 35.304L16.464 34.776L16.112 37.592H16.256C16.6827 36.664 17.168 35.9387 17.712 35.416C18.256 34.8933 18.8213 34.632 19.408 34.632ZM23.5225 37.736C23.5225 36.3707 24.2425 35.1227 25.6825 33.992L28.3065 35.752C27.1225 36.5093 26.5305 37.304 26.5305 38.136C26.5305 38.5733 26.7705 39.144 27.2505 39.848C27.7412 40.552 27.9865 41.1013 27.9865 41.496C27.9865 42.8933 27.0265 43.9707 25.1065 44.728L24.4025 43.784C25.2452 43.3253 25.6665 42.8187 25.6665 42.264C25.6665 41.7413 25.3092 41.08 24.5945 40.28C24.3278 39.9813 24.0825 39.6027 23.8585 39.144C23.6345 38.6853 23.5225 38.216 23.5225 37.736ZM34.5296 31L35.1216 33.736C34.1403 34.0773 33.447 34.6587 33.0416 35.48L35.6816 35.336L35.6336 36.408L34.0496 36.648L33.2656 43.096L31.6816 43.24L31.0416 37.096L29.6816 37.304L29.5856 35.656L31.0256 35.592C31.111 34.1627 31.4896 33.0693 32.1616 32.312C32.8336 31.544 33.623 31.1067 34.5296 31ZM39.9323 34.824L40.9243 41.048H41.0523L43.2123 35.368L44.3643 35.72L45.8363 41.096H45.9643L47.6283 34.936L48.9243 35.288L46.3803 43.032L45.0843 43.24L42.7483 39.496L41.2443 43.032L39.6603 43.24L36.6363 35.32L39.9323 34.824Z"/>
</mask>
<path d="M19.408 34.632C19.6107 34.632 19.808 34.664 20 34.728C20.544 35.3893 20.9173 36.536 21.12 38.168C21.3227 39.7893 21.424 41.4 21.424 43L18.544 43.24C18.544 40.7867 18.4533 38.552 18.272 36.536C16.8533 37.0587 15.9093 39.2453 15.44 43.096L13.856 43.24L13.04 35.304L16.464 34.776L16.112 37.592H16.256C16.6827 36.664 17.168 35.9387 17.712 35.416C18.256 34.8933 18.8213 34.632 19.408 34.632ZM23.5225 37.736C23.5225 36.3707 24.2425 35.1227 25.6825 33.992L28.3065 35.752C27.1225 36.5093 26.5305 37.304 26.5305 38.136C26.5305 38.5733 26.7705 39.144 27.2505 39.848C27.7412 40.552 27.9865 41.1013 27.9865 41.496C27.9865 42.8933 27.0265 43.9707 25.1065 44.728L24.4025 43.784C25.2452 43.3253 25.6665 42.8187 25.6665 42.264C25.6665 41.7413 25.3092 41.08 24.5945 40.28C24.3278 39.9813 24.0825 39.6027 23.8585 39.144C23.6345 38.6853 23.5225 38.216 23.5225 37.736ZM34.5296 31L35.1216 33.736C34.1403 34.0773 33.447 34.6587 33.0416 35.48L35.6816 35.336L35.6336 36.408L34.0496 36.648L33.2656 43.096L31.6816 43.24L31.0416 37.096L29.6816 37.304L29.5856 35.656L31.0256 35.592C31.111 34.1627 31.4896 33.0693 32.1616 32.312C32.8336 31.544 33.623 31.1067 34.5296 31ZM39.9323 34.824L40.9243 41.048H41.0523L43.2123 35.368L44.3643 35.72L45.8363 41.096H45.9643L47.6283 34.936L48.9243 35.288L46.3803 43.032L45.0843 43.24L42.7483 39.496L41.2443 43.032L39.6603 43.24L36.6363 35.32L39.9323 34.824Z" fill="#FBFBFB"/>
<path d="M20 34.728L20.7723 34.0927L20.5894 33.8704L20.3162 33.7793L20 34.728ZM21.12 38.168L20.1276 38.2912L20.1277 38.292L21.12 38.168ZM21.424 43L21.507 43.9965L22.424 43.9201V43H21.424ZM18.544 43.24H17.544V44.3268L18.627 44.2365L18.544 43.24ZM18.272 36.536L19.268 36.4464L19.151 35.1464L17.9263 35.5977L18.272 36.536ZM15.44 43.096L15.5305 44.0919L16.3349 44.0188L16.4327 43.217L15.44 43.096ZM13.856 43.24L12.8612 43.3423L12.9623 44.3254L13.9465 44.2359L13.856 43.24ZM13.04 35.304L12.8876 34.3157L11.948 34.4606L12.0452 35.4063L13.04 35.304ZM16.464 34.776L17.4563 34.9L17.6206 33.5858L16.3116 33.7877L16.464 34.776ZM16.112 37.592L15.1197 37.468L14.9792 38.592H16.112V37.592ZM16.256 37.592V38.592H16.8969L17.1646 38.0097L16.256 37.592ZM17.712 35.416L17.0192 34.6949L17.0192 34.6949L17.712 35.416ZM19.408 35.632C19.5033 35.632 19.5939 35.6467 19.6838 35.6767L20.3162 33.7793C20.0221 33.6813 19.718 33.632 19.408 33.632V35.632ZM19.2277 35.3633C19.5836 35.7959 19.9303 36.7021 20.1276 38.2912L22.1124 38.0448C21.9044 36.3699 21.5044 34.9827 20.7723 34.0927L19.2277 35.3633ZM20.1277 38.292C20.3254 39.8731 20.424 41.4423 20.424 43H22.424C22.424 41.3577 22.32 39.7056 22.1123 38.044L20.1277 38.292ZM21.341 42.0035L18.461 42.2435L18.627 44.2365L21.507 43.9965L21.341 42.0035ZM19.544 43.24C19.544 40.7628 19.4525 38.4976 19.268 36.4464L17.276 36.6256C17.4542 38.6064 17.544 40.8106 17.544 43.24H19.544ZM17.9263 35.5977C16.8446 35.9962 16.1015 36.9681 15.5819 38.1716C15.0558 39.3902 14.6873 41.0064 14.4473 42.975L16.4327 43.217C16.662 41.335 17.0002 39.9324 17.4181 38.9643C17.8425 37.9812 18.2807 37.5985 18.6177 37.4743L17.9263 35.5977ZM15.3495 42.1001L13.7655 42.2441L13.9465 44.2359L15.5305 44.0919L15.3495 42.1001ZM14.8508 43.1377L14.0348 35.2017L12.0452 35.4063L12.8612 43.3423L14.8508 43.1377ZM13.1924 36.2923L16.6164 35.7643L16.3116 33.7877L12.8876 34.3157L13.1924 36.2923ZM15.4717 34.652L15.1197 37.468L17.1043 37.716L17.4563 34.9L15.4717 34.652ZM16.112 38.592H16.256V36.592H16.112V38.592ZM17.1646 38.0097C17.5563 37.1577 17.9769 36.5483 18.4048 36.1371L17.0192 34.6949C16.3591 35.329 15.809 36.1703 15.3474 37.1743L17.1646 38.0097ZM18.4048 36.1371C18.8179 35.7402 19.1474 35.632 19.408 35.632V33.632C18.4953 33.632 17.6941 34.0465 17.0192 34.6949L18.4048 36.1371ZM25.6825 33.992L26.2395 33.1615L25.6363 32.7569L25.0649 33.2055L25.6825 33.992ZM28.3065 35.752L28.8453 36.5944L30.1313 35.7718L28.8635 34.9215L28.3065 35.752ZM27.2505 39.848L26.4242 40.4114L26.4301 40.4198L27.2505 39.848ZM25.1065 44.728L24.3049 45.3258L24.762 45.9389L25.4734 45.6582L25.1065 44.728ZM24.4025 43.784L23.9244 42.9057L22.9113 43.4571L23.6009 44.3818L24.4025 43.784ZM24.5945 40.28L23.8486 40.946L23.8487 40.9462L24.5945 40.28ZM23.8585 39.144L22.9599 39.5828L23.8585 39.144ZM24.5225 37.736C24.5225 36.7748 25.0131 35.789 26.3001 34.7785L25.0649 33.2055C23.4719 34.4563 22.5225 35.9666 22.5225 37.736H24.5225ZM25.1255 34.8225L27.7495 36.5825L28.8635 34.9215L26.2395 33.1615L25.1255 34.8225ZM27.7677 34.9096C26.497 35.7224 25.5305 36.7786 25.5305 38.136H27.5305C27.5305 37.8293 27.748 37.2963 28.8453 36.5944L27.7677 34.9096ZM25.5305 38.136C25.5305 38.89 25.9211 39.6734 26.4243 40.4113L28.0767 39.2847C27.6199 38.6146 27.5305 38.2567 27.5305 38.136H25.5305ZM26.4301 40.4198C26.6533 40.74 26.8007 40.9971 26.8894 41.1958C26.9332 41.2938 26.9587 41.3687 26.9727 41.4225C26.9868 41.4768 26.9865 41.4994 26.9865 41.496H28.9865C28.9865 40.7653 28.5692 39.9912 28.0709 39.2762L26.4301 40.4198ZM26.9865 41.496C26.9865 42.2932 26.4912 43.1068 24.7396 43.7978L25.4734 45.6582C27.5618 44.8345 28.9865 43.4935 28.9865 41.496H26.9865ZM25.9081 44.1302L25.2041 43.1862L23.6009 44.3818L24.3049 45.3258L25.9081 44.1302ZM24.8806 44.6623C25.8028 44.1603 26.6665 43.3959 26.6665 42.264H24.6665C24.6665 42.2656 24.6723 42.3116 24.5816 42.4206C24.4799 42.5429 24.2809 42.7117 23.9244 42.9057L24.8806 44.6623ZM26.6665 42.264C26.6665 41.3414 26.0733 40.4344 25.3403 39.6138L23.8487 40.9462C24.545 41.7256 24.6665 42.1413 24.6665 42.264H26.6665ZM25.3404 39.614C25.1489 39.3994 24.9513 39.1029 24.7571 38.7052L22.9599 39.5828C23.2137 40.1025 23.5068 40.5632 23.8486 40.946L25.3404 39.614ZM24.7571 38.7052C24.5955 38.3743 24.5225 38.0543 24.5225 37.736H22.5225C22.5225 38.3777 22.6735 38.9964 22.9599 39.5828L24.7571 38.7052ZM34.5296 31L35.507 30.7885L35.3149 29.9007L34.4128 30.0068L34.5296 31ZM35.1216 33.736L35.4501 34.6805L36.2862 34.3897L36.099 33.5245L35.1216 33.736ZM33.0416 35.48L32.1449 35.0375L31.3877 36.5717L33.0961 36.4785L33.0416 35.48ZM35.6816 35.336L36.6806 35.3807L36.73 34.2773L35.6272 34.3375L35.6816 35.336ZM35.6336 36.408L35.7834 37.3967L36.5959 37.2736L36.6326 36.4527L35.6336 36.408ZM34.0496 36.648L33.8998 35.6593L33.1486 35.7731L33.0569 36.5273L34.0496 36.648ZM33.2656 43.096L33.3562 44.0919L34.1608 44.0187L34.2583 43.2167L33.2656 43.096ZM31.6816 43.24L30.687 43.3436L30.7893 44.3252L31.7722 44.2359L31.6816 43.24ZM31.0416 37.096L32.0362 36.9924L31.9275 35.9489L30.8904 36.1075L31.0416 37.096ZM29.6816 37.304L28.6833 37.3622L28.7472 38.4585L29.8328 38.2925L29.6816 37.304ZM29.5856 35.656L29.5412 34.657L28.5284 34.702L28.5873 35.7142L29.5856 35.656ZM31.0256 35.592L31.07 36.591L31.9702 36.551L32.0238 35.6516L31.0256 35.592ZM32.1616 32.312L32.9096 32.9757L32.9142 32.9705L32.1616 32.312ZM33.5522 31.2115L34.1442 33.9475L36.099 33.5245L35.507 30.7885L33.5522 31.2115ZM34.7931 32.7915C33.6 33.2065 32.6823 33.9484 32.1449 35.0375L33.9384 35.9225C34.2116 35.3689 34.6806 34.9482 35.4501 34.6805L34.7931 32.7915ZM33.0961 36.4785L35.7361 36.3345L35.6272 34.3375L32.9872 34.4815L33.0961 36.4785ZM34.6826 35.2913L34.6346 36.3633L36.6326 36.4527L36.6806 35.3807L34.6826 35.2913ZM35.4838 35.4193L33.8998 35.6593L34.1994 37.6367L35.7834 37.3967L35.4838 35.4193ZM33.0569 36.5273L32.2729 42.9753L34.2583 43.2167L35.0423 36.7687L33.0569 36.5273ZM33.1751 42.1001L31.5911 42.2441L31.7722 44.2359L33.3562 44.0919L33.1751 42.1001ZM32.6762 43.1364L32.0362 36.9924L30.047 37.1996L30.687 43.3436L32.6762 43.1364ZM30.8904 36.1075L29.5304 36.3155L29.8328 38.2925L31.1928 38.0845L30.8904 36.1075ZM30.6799 37.2458L30.5839 35.5978L28.5873 35.7142L28.6833 37.3622L30.6799 37.2458ZM29.63 36.655L31.07 36.591L30.9812 34.593L29.5412 34.657L29.63 36.655ZM32.0238 35.6516C32.1012 34.3554 32.4371 33.5082 32.9096 32.9757L31.4136 31.6483C30.5422 32.6304 30.1207 33.9699 30.0274 35.5324L32.0238 35.6516ZM32.9142 32.9705C33.4438 32.3653 34.0154 32.0674 34.6465 31.9931L34.4128 30.0068C33.2305 30.1459 32.2235 30.7227 31.409 31.6535L32.9142 32.9705ZM39.9323 34.824L40.9198 34.6666L40.7638 33.6876L39.7834 33.8351L39.9323 34.824ZM40.9242 41.048L39.9367 41.2054L40.071 42.048H40.9242V41.048ZM41.0522 41.048V42.048H41.7418L41.9869 41.4034L41.0522 41.048ZM43.2122 35.368L43.5045 34.4116L42.61 34.1383L42.2776 35.0126L43.2122 35.368ZM44.3643 35.72L45.3287 35.4559L45.1833 34.9246L44.6565 34.7636L44.3643 35.72ZM45.8363 41.096L44.8718 41.3601L45.0732 42.096H45.8363V41.096ZM45.9642 41.096V42.096H46.73L46.9296 41.3568L45.9642 41.096ZM47.6283 34.936L47.8904 33.971L46.924 33.7085L46.6629 34.6752L47.6283 34.936ZM48.9243 35.288L49.8743 35.6001L50.2031 34.5991L49.1864 34.323L48.9243 35.288ZM46.3802 43.032L46.5387 44.0194L47.1402 43.9228L47.3303 43.3441L46.3802 43.032ZM45.0843 43.24L44.2358 43.7693L44.5873 44.3326L45.2427 44.2274L45.0843 43.24ZM42.7483 39.496L43.5967 38.9667L42.5799 37.337L41.828 39.1046L42.7483 39.496ZM41.2443 43.032L41.3744 44.0235L41.9409 43.9491L42.1645 43.4234L41.2443 43.032ZM39.6602 43.24L38.726 43.5967L39.0077 44.3343L39.7904 44.2315L39.6602 43.24ZM36.6362 35.32L36.4874 34.3311L35.2589 34.516L35.702 35.6767L36.6362 35.32ZM38.9447 34.9814L39.9367 41.2054L41.9118 40.8906L40.9198 34.6666L38.9447 34.9814ZM40.9242 42.048H41.0522V40.048H40.9242V42.048ZM41.9869 41.4034L44.1469 35.7234L42.2776 35.0126L40.1176 40.6926L41.9869 41.4034ZM42.92 36.3244L44.072 36.6764L44.6565 34.7636L43.5045 34.4116L42.92 36.3244ZM43.3998 35.9841L44.8718 41.3601L46.8007 40.8319L45.3287 35.4559L43.3998 35.9841ZM45.8363 42.096H45.9642V40.096H45.8363V42.096ZM46.9296 41.3568L48.5936 35.1968L46.6629 34.6752L44.9989 40.8352L46.9296 41.3568ZM47.3661 35.901L48.6621 36.253L49.1864 34.323L47.8904 33.971L47.3661 35.901ZM47.9742 34.9759L45.4302 42.7199L47.3303 43.3441L49.8743 35.6001L47.9742 34.9759ZM46.2218 42.0446L44.9258 42.2526L45.2427 44.2274L46.5387 44.0194L46.2218 42.0446ZM45.9327 42.7107L43.5967 38.9667L41.8998 40.0253L44.2358 43.7693L45.9327 42.7107ZM41.828 39.1046L40.324 42.6406L42.1645 43.4234L43.6685 39.8874L41.828 39.1046ZM41.1141 42.0405L39.5301 42.2485L39.7904 44.2315L41.3744 44.0235L41.1141 42.0405ZM40.5945 42.8833L37.5705 34.9633L35.702 35.6767L38.726 43.5967L40.5945 42.8833ZM36.7851 36.3089L40.0811 35.8129L39.7834 33.8351L36.4874 34.3311L36.7851 36.3089Z" fill="#D70303" mask="url(#path-2-outside-1_245_35)"/>
<mask id="path-4-outside-2_245_35" maskUnits="userSpaceOnUse" x="2" y="9" width="40" height="20" fill="black">
<rect fill="white" x="2" y="9" width="40" height="20"/>
<path d="M9.664 18.144H13.528L13.288 20.136L9.664 20.376V24.648L7.672 24.408L7.408 20.52L3.16 20.784L3.4 18.144H7.264L7.024 14.28L9.664 14.52V18.144ZM24.0233 10.992L24.8873 11.4L23.2313 27.096L20.5913 27.336L19.7033 15.816L16.9433 17.784L15.6953 15.192L24.0233 10.992ZM28.3591 22.92C28.3591 21.272 29.1031 19.944 30.5911 18.936C30.3671 18.872 30.2071 18.816 30.1111 18.768C29.2151 17.6 28.7671 16.424 28.7671 15.24C28.7671 12.44 30.6151 11.04 34.3111 11.04C35.8951 11.04 37.3831 11.296 38.7751 11.808C39.6711 12.976 40.1191 14.152 40.1191 15.336C40.1191 16.776 39.4711 17.968 38.1751 18.912L39.0871 19.224C40.0471 20.456 40.5271 21.728 40.5271 23.04C40.5271 26.064 38.5431 27.576 34.5751 27.576C32.8471 27.576 31.2551 27.296 29.7991 26.736C28.8391 25.504 28.3591 24.232 28.3591 22.92ZM32.3431 23.448C32.3431 24.2 32.4711 24.856 32.7271 25.416C33.3031 25.832 33.9831 26.04 34.7671 26.04C35.8231 25.192 36.3511 24.112 36.3511 22.8C36.3511 21.488 36.0311 20.448 35.3911 19.68C34.9911 19.616 34.5351 19.584 34.0231 19.584C32.9031 20.48 32.3431 21.768 32.3431 23.448ZM36.6391 14.904C36.6391 14.28 36.5111 13.696 36.2551 13.152C35.6471 12.784 34.9271 12.6 34.0951 12.6C32.9751 13.368 32.4151 14.368 32.4151 15.6C32.4151 16.064 32.5031 16.544 32.6791 17.04C32.8711 17.536 33.1271 17.936 33.4471 18.24C33.8791 18.304 34.3591 18.336 34.8871 18.336C36.0551 17.52 36.6391 16.376 36.6391 14.904Z"/>
</mask>
<path d="M9.664 18.144H13.528L13.288 20.136L9.664 20.376V24.648L7.672 24.408L7.408 20.52L3.16 20.784L3.4 18.144H7.264L7.024 14.28L9.664 14.52V18.144ZM24.0233 10.992L24.8873 11.4L23.2313 27.096L20.5913 27.336L19.7033 15.816L16.9433 17.784L15.6953 15.192L24.0233 10.992ZM28.3591 22.92C28.3591 21.272 29.1031 19.944 30.5911 18.936C30.3671 18.872 30.2071 18.816 30.1111 18.768C29.2151 17.6 28.7671 16.424 28.7671 15.24C28.7671 12.44 30.6151 11.04 34.3111 11.04C35.8951 11.04 37.3831 11.296 38.7751 11.808C39.6711 12.976 40.1191 14.152 40.1191 15.336C40.1191 16.776 39.4711 17.968 38.1751 18.912L39.0871 19.224C40.0471 20.456 40.5271 21.728 40.5271 23.04C40.5271 26.064 38.5431 27.576 34.5751 27.576C32.8471 27.576 31.2551 27.296 29.7991 26.736C28.8391 25.504 28.3591 24.232 28.3591 22.92ZM32.3431 23.448C32.3431 24.2 32.4711 24.856 32.7271 25.416C33.3031 25.832 33.9831 26.04 34.7671 26.04C35.8231 25.192 36.3511 24.112 36.3511 22.8C36.3511 21.488 36.0311 20.448 35.3911 19.68C34.9911 19.616 34.5351 19.584 34.0231 19.584C32.9031 20.48 32.3431 21.768 32.3431 23.448ZM36.6391 14.904C36.6391 14.28 36.5111 13.696 36.2551 13.152C35.6471 12.784 34.9271 12.6 34.0951 12.6C32.9751 13.368 32.4151 14.368 32.4151 15.6C32.4151 16.064 32.5031 16.544 32.6791 17.04C32.8711 17.536 33.1271 17.936 33.4471 18.24C33.8791 18.304 34.3591 18.336 34.8871 18.336C36.0551 17.52 36.6391 16.376 36.6391 14.904Z" fill="white"/>
<path d="M9.664 18.144H8.664V19.144H9.664V18.144ZM13.528 18.144L14.5208 18.2636L14.6557 17.144H13.528V18.144ZM13.288 20.136L13.3541 21.1338L14.1816 21.079L14.2808 20.2556L13.288 20.136ZM9.664 20.376L9.59792 19.3782L8.664 19.44V20.376H9.664ZM9.664 24.648L9.54438 25.6408L10.664 25.7757V24.648H9.664ZM7.672 24.408L6.6743 24.4757L6.73039 25.3018L7.55238 25.4008L7.672 24.408ZM7.408 20.52L8.4057 20.4523L8.33834 19.4603L7.34597 19.5219L7.408 20.52ZM3.16 20.784L2.16411 20.6935L2.05857 21.8544L3.22203 21.7821L3.16 20.784ZM3.4 18.144V17.144H2.48679L2.40411 18.0535L3.4 18.144ZM7.264 18.144V19.144H8.32804L8.26208 18.082L7.264 18.144ZM7.024 14.28L7.11454 13.2841L5.95366 13.1786L6.02592 14.342L7.024 14.28ZM9.664 14.52H10.664V13.6068L9.75454 13.5241L9.664 14.52ZM9.664 19.144H13.528V17.144H9.664V19.144ZM12.5352 18.0244L12.2952 20.0164L14.2808 20.2556L14.5208 18.2636L12.5352 18.0244ZM13.2219 19.1382L9.59792 19.3782L9.73008 21.3738L13.3541 21.1338L13.2219 19.1382ZM8.664 20.376V24.648H10.664V20.376H8.664ZM9.78362 23.6552L7.79162 23.4152L7.55238 25.4008L9.54438 25.6408L9.78362 23.6552ZM8.6697 24.3403L8.4057 20.4523L6.4103 20.5877L6.6743 24.4757L8.6697 24.3403ZM7.34597 19.5219L3.09797 19.7859L3.22203 21.7821L7.47003 21.5181L7.34597 19.5219ZM4.15589 20.8745L4.39589 18.2345L2.40411 18.0535L2.16411 20.6935L4.15589 20.8745ZM3.4 19.144H7.264V17.144H3.4V19.144ZM8.26208 18.082L8.02208 14.218L6.02592 14.342L6.26592 18.206L8.26208 18.082ZM6.93346 15.2759L9.57347 15.5159L9.75454 13.5241L7.11454 13.2841L6.93346 15.2759ZM8.664 14.52V18.144H10.664V14.52H8.664ZM24.0233 10.992L24.4503 10.0878L24.0089 9.8793L23.573 10.0991L24.0233 10.992ZM24.8873 11.4L25.8818 11.5049L25.9563 10.7989L25.3143 10.4958L24.8873 11.4ZM23.2313 27.096L23.3218 28.0919L24.1396 28.0175L24.2258 27.2009L23.2313 27.096ZM20.5913 27.336L19.5943 27.4129L19.6722 28.4237L20.6818 28.3319L20.5913 27.336ZM19.7033 15.816L20.7004 15.7391L20.5643 13.9739L19.1227 15.0018L19.7033 15.816ZM16.9433 17.784L16.0423 18.2178L16.5573 19.2874L17.5239 18.5982L16.9433 17.784ZM15.6953 15.192L15.245 14.2991L14.3684 14.7412L14.7943 15.6258L15.6953 15.192ZM23.5963 11.8962L24.4603 12.3042L25.3143 10.4958L24.4503 10.0878L23.5963 11.8962ZM23.8928 11.2951L22.2368 26.9911L24.2258 27.2009L25.8818 11.5049L23.8928 11.2951ZM23.1408 26.1001L20.5008 26.3401L20.6818 28.3319L23.3218 28.0919L23.1408 26.1001ZM21.5884 27.2591L20.7004 15.7391L18.7063 15.8929L19.5943 27.4129L21.5884 27.2591ZM19.1227 15.0018L16.3627 16.9698L17.5239 18.5982L20.2839 16.6302L19.1227 15.0018ZM17.8443 17.3502L16.5963 14.7582L14.7943 15.6258L16.0423 18.2178L17.8443 17.3502ZM16.1456 16.0849L24.4736 11.8849L23.573 10.0991L15.245 14.2991L16.1456 16.0849ZM30.5911 18.936L31.1519 19.7639L32.925 18.5628L30.8658 17.9745L30.5911 18.936ZM30.1111 18.768L29.3176 19.3767L29.4578 19.5594L29.6638 19.6624L30.1111 18.768ZM38.7751 11.808L39.5685 11.1993L39.3922 10.9695L39.1203 10.8695L38.7751 11.808ZM38.1751 18.912L37.5863 18.1037L36.0321 19.2358L37.8514 19.8582L38.1751 18.912ZM39.0871 19.224L39.8759 18.6094L39.6927 18.3743L39.4108 18.2778L39.0871 19.224ZM29.7991 26.736L29.0103 27.3506L29.1809 27.5697L29.4401 27.6693L29.7991 26.736ZM32.7271 25.416L31.8176 25.8318L31.9274 26.072L32.1416 26.2267L32.7271 25.416ZM34.7671 26.04V27.04H35.1189L35.3932 26.8197L34.7671 26.04ZM35.3911 19.68L36.1593 19.0398L35.9193 18.7518L35.5491 18.6926L35.3911 19.68ZM34.0231 19.584V18.584H33.6723L33.3984 18.8031L34.0231 19.584ZM36.2551 13.152L37.1599 12.7262L37.0313 12.4529L36.7729 12.2965L36.2551 13.152ZM34.0951 12.6V11.6H33.7851L33.5295 11.7753L34.0951 12.6ZM32.6791 17.04L31.7366 17.3744L31.7414 17.3878L31.7465 17.401L32.6791 17.04ZM33.4471 18.24L32.7583 18.965L32.9876 19.1829L33.3005 19.2292L33.4471 18.24ZM34.8871 18.336V19.336H35.2018L35.4598 19.1558L34.8871 18.336ZM29.3591 22.92C29.3591 21.6377 29.9092 20.6057 31.1519 19.7639L30.0302 18.1081C28.2969 19.2823 27.3591 20.9063 27.3591 22.92H29.3591ZM30.8658 17.9745C30.7661 17.946 30.6897 17.9218 30.6334 17.9021C30.5733 17.8811 30.5533 17.8711 30.5583 17.8736L29.6638 19.6624C29.8486 19.7548 30.0852 19.8315 30.3163 19.8975L30.8658 17.9745ZM30.9045 18.1593C30.1092 17.1226 29.7671 16.1549 29.7671 15.24H27.7671C27.7671 16.6931 28.3209 18.0774 29.3176 19.3767L30.9045 18.1593ZM29.7671 15.24C29.7671 14.0802 30.1353 13.358 30.7569 12.8871C31.4309 12.3765 32.5608 12.04 34.3111 12.04V10.04C32.3653 10.04 30.7232 10.4035 29.5492 11.2929C28.3228 12.222 27.7671 13.5998 27.7671 15.24H29.7671ZM34.3111 12.04C35.7853 12.04 37.1557 12.2779 38.4299 12.7465L39.1203 10.8695C37.6104 10.3141 36.0048 10.04 34.3111 10.04V12.04ZM37.9816 12.4167C38.7769 13.4534 39.1191 14.4211 39.1191 15.336H41.1191C41.1191 13.8829 40.5652 12.4986 39.5685 11.1993L37.9816 12.4167ZM39.1191 15.336C39.1191 16.4166 38.6578 17.3232 37.5863 18.1037L38.7638 19.7203C40.2843 18.6128 41.1191 17.1354 41.1191 15.336H39.1191ZM37.8514 19.8582L38.7634 20.1702L39.4108 18.2778L38.4988 17.9658L37.8514 19.8582ZM38.2983 19.8386C39.1484 20.9296 39.5271 21.991 39.5271 23.04H41.5271C41.5271 21.465 40.9457 19.9824 39.8759 18.6094L38.2983 19.8386ZM39.5271 23.04C39.5271 24.314 39.1233 25.1205 38.4329 25.6466C37.6912 26.2119 36.4604 26.576 34.5751 26.576V28.576C36.6578 28.576 38.4029 28.1841 39.6452 27.2374C40.9389 26.2515 41.5271 24.79 41.5271 23.04H39.5271ZM34.5751 26.576C32.9566 26.576 31.4878 26.3141 30.158 25.8027L29.4401 27.6693C31.0223 28.2779 32.7375 28.576 34.5751 28.576V26.576ZM30.5879 26.1214C29.7377 25.0304 29.3591 23.969 29.3591 22.92H27.3591C27.3591 24.495 27.9404 25.9776 29.0103 27.3506L30.5879 26.1214ZM31.3431 23.448C31.3431 24.3124 31.4902 25.1157 31.8176 25.8318L33.6365 25.0002C33.4519 24.5963 33.3431 24.0876 33.3431 23.448H31.3431ZM32.1416 26.2267C32.9056 26.7785 33.7957 27.04 34.7671 27.04V25.04C34.1704 25.04 33.7005 24.8855 33.3126 24.6053L32.1416 26.2267ZM35.3932 26.8197C36.6767 25.789 37.3511 24.4263 37.3511 22.8H35.3511C35.3511 23.7977 34.9694 24.595 34.1409 25.2603L35.3932 26.8197ZM37.3511 22.8C37.3511 21.328 36.9904 20.0372 36.1593 19.0398L34.6228 20.3202C35.0717 20.8588 35.3511 21.648 35.3511 22.8H37.3511ZM35.5491 18.6926C35.0853 18.6184 34.5749 18.584 34.0231 18.584V20.584C34.4953 20.584 34.8968 20.6136 35.2331 20.6674L35.5491 18.6926ZM33.3984 18.8031C31.9991 19.9225 31.3431 21.5225 31.3431 23.448H33.3431C33.3431 22.0135 33.807 21.0375 34.6478 20.3649L33.3984 18.8031ZM37.6391 14.904C37.6391 14.1385 37.481 13.4085 37.1599 12.7262L35.3502 13.5778C35.5412 13.9835 35.6391 14.4215 35.6391 14.904H37.6391ZM36.7729 12.2965C35.9837 11.8189 35.0781 11.6 34.0951 11.6V13.6C34.7761 13.6 35.3104 13.7491 35.7373 14.0075L36.7729 12.2965ZM33.5295 11.7753C32.1702 12.7074 31.4151 14.0006 31.4151 15.6H33.4151C33.4151 14.7354 33.7799 14.0286 34.6606 13.4247L33.5295 11.7753ZM31.4151 15.6C31.4151 16.1921 31.5276 16.7853 31.7366 17.3744L33.6215 16.7056C33.4785 16.3027 33.4151 15.9359 33.4151 15.6H31.4151ZM31.7465 17.401C31.9811 18.007 32.3114 18.5404 32.7583 18.965L34.1358 17.515C33.9427 17.3316 33.761 17.065 33.6116 16.679L31.7465 17.401ZM33.3005 19.2292C33.7898 19.3017 34.3198 19.336 34.8871 19.336V17.336C34.3983 17.336 33.9683 17.3063 33.5936 17.2508L33.3005 19.2292ZM35.4598 19.1558C36.9059 18.1454 37.6391 16.6898 37.6391 14.904H35.6391C35.6391 16.0622 35.2042 16.8946 34.3144 17.5162L35.4598 19.1558Z" fill="#D70303" mask="url(#path-4-outside-2_245_35)"/>
</svg>
