<svg width="24" height="24" viewBox="0 0 24 24" fill="none" xmlns="http://www.w3.org/2000/svg">
<g clip-path="url(#clip0_206_6383)">
<path d="M15 6H15.01" stroke="black" stroke-width="2" stroke-linecap="round" stroke-linejoin="round"/>
<path d="M18 3H6C4.34315 3 3 4.34315 3 6V14C3 15.6569 4.34315 17 6 17H18C19.6569 17 21 15.6569 21 14V6C21 4.34315 19.6569 3 18 3Z" stroke="black" stroke-width="2" stroke-linecap="round" stroke-linejoin="round"/>
<path d="M3 13L7 8.99995C7.45606 8.56111 7.97339 8.33008 8.5 8.33008C9.02661 8.33008 9.54394 8.56111 10 8.99995L14 13" stroke="black" stroke-width="2" stroke-linecap="round" stroke-linejoin="round"/>
<path d="M13 12L15 9.99995C15.4561 9.56111 15.9734 9.33008 16.5 9.33008C17.0266 9.33008 17.5439 9.56111 18 9.99995L21 13" stroke="black" stroke-width="2" stroke-linecap="round" stroke-linejoin="round"/>
<path d="M8 21H8.01" stroke="black" stroke-width="2" stroke-linecap="round" stroke-linejoin="round"/>
<path d="M12 21H12.01" stroke="black" stroke-width="2" stroke-linecap="round" stroke-linejoin="round"/>
<path d="M16 21H16.01" stroke="black" stroke-width="2" stroke-linecap="round" stroke-linejoin="round"/>
</g>
<defs>
<clipPath id="clip0_206_6383">
<rect width="24" height="24" fill="white"/>
</clipPath>
</defs>
</svg>
